<?xml version="1.0" encoding="iso-8859-1"?>
<!-- Uploaded to: SVG Repo, www.svgrepo.com, Generator: SVG Repo Mixer Tools -->
<!DOCTYPE svg PUBLIC "-//W3C//DTD SVG 1.1//EN" "http://www.w3.org/Graphics/SVG/1.1/DTD/svg11.dtd">
<svg fill="#000000" version="1.1" id="Capa_1" xmlns="http://www.w3.org/2000/svg" xmlns:xlink="http://www.w3.org/1999/xlink" 
	 width="800px" height="800px" viewBox="0 0 90.479 90.479"
	 xml:space="preserve">
<g>
	<path d="M0,20.944v48.59h90.479v-48.59H0z M87.685,66.742H2.792V23.736h11.261l6.73,10.768l-9.761,6.395L9.783,41.71l1.27,0.629
		l18.827,9.327L13.117,41.639l10.193-5.58l1.107-0.606l-0.631-1.213l-5.464-10.504h24.009l-1.319,7.519l-0.071,0.404l0.164,0.225
		l5.907,8.141l-4.332-8.621l2.676-7.667h22.056l2.979,1.568l-9.603,9.589l-0.697,0.696l0.85,0.36l11.821,5.009l-10.397-5.694
		l11.353-9.263l1.44-1.177l-1.646-1.089h14.172V66.742z"/>
</g>
</svg>